<svg width="36" height="36" viewBox="0 0 36 36" fill="none" xmlns="http://www.w3.org/2000/svg">
<path d="M7.605 24C7.5345 23.5031 7.49941 23.0019 7.5 22.5V21H4.5V18H7.5V16.5C7.5 15.99 7.536 15.4905 7.605 15H4.5V12H8.511C9.43046 10.0673 10.9163 8.4601 12.771 7.39201L11.196 5.81701L13.32 3.69751L15.8445 6.22351C17.2671 5.92622 18.7359 5.92622 20.1585 6.22351L22.683 3.69751L24.8055 5.82001L23.2305 7.39501C25.0842 8.46254 26.5694 10.0686 27.489 12H31.5V15H28.395C28.464 15.4905 28.5 15.99 28.5 16.5V18H31.5V21H28.5V22.5C28.5 23.01 28.464 23.5095 28.395 24H31.5V27H27.489C26.6379 28.7965 25.2944 30.3144 23.6146 31.3773C21.9348 32.4403 19.9878 33.0046 18 33.0046C16.0122 33.0046 14.0652 32.4403 12.3854 31.3773C10.7056 30.3144 9.36207 28.7965 8.511 27H4.5V24H7.605ZM13.5 15V18H22.5V15H13.5ZM13.5 21V24H22.5V21H13.5Z" fill="#494949"/>
</svg>
