<svg width="36" height="36" viewBox="0 0 36 36" fill="none" xmlns="http://www.w3.org/2000/svg">
<path d="M31.5 14.25V18.75C31.5 22.4775 25.455 25.5 18 25.5C10.545 25.5 4.5 22.4775 4.5 18.75V14.25C4.5 17.9775 10.545 21 18 21C25.455 21 31.5 17.9775 31.5 14.25ZM4.5 21.75C4.5 25.4775 10.545 28.5 18 28.5C25.455 28.5 31.5 25.4775 31.5 21.75V26.25C31.5 29.9775 25.455 33 18 33C10.545 33 4.5 29.9775 4.5 26.25V21.75ZM18 18C10.545 18 4.5 14.9775 4.5 11.25C4.5 7.5225 10.545 4.5 18 4.5C25.455 4.5 31.5 7.5225 31.5 11.25C31.5 14.9775 25.455 18 18 18Z" fill="#494949"/>
</svg>
