<svg width="52" height="52" viewBox="0 0 52 52" fill="none" xmlns="http://www.w3.org/2000/svg">
<rect width="52" height="52" rx="10" fill="#1B1A1A"/>
<path fill-rule="evenodd" clip-rule="evenodd" d="M28.4315 14.6484L25.9963 12.2513L11 27.0123L12.7047 28.6903L12.7047 28.6903L14.1658 30.1285L29.1621 15.3675L28.4315 14.6484Z" fill="white"/>
<path fill-rule="evenodd" clip-rule="evenodd" d="M24.5426 13.6882L22.838 15.3662L37.8342 30.1272L40.2695 27.7301L40.2695 27.7301L41 27.011L26.0038 12.25L24.5426 13.6882Z" fill="white"/>
<path fill-rule="evenodd" clip-rule="evenodd" d="M26.0147 37.75C29.2589 37.75 31.8889 35.1613 31.8889 31.968C31.8889 28.7747 29.2589 26.1861 26.0147 26.1861C22.7706 26.1861 20.1406 28.7747 20.1406 31.968C20.1406 35.1613 22.7706 37.75 26.0147 37.75ZM26 34C27.1046 34 28 33.1046 28 32C28 30.8954 27.1046 30 26 30C24.8954 30 24 30.8954 24 32C24 33.1046 24.8954 34 26 34Z" fill="white"/>
</svg>
