<svg width="36" height="36" viewBox="0 0 36 36" fill="none" xmlns="http://www.w3.org/2000/svg">
<path d="M4.5 4.5H31.5C31.8978 4.5 32.2794 4.65804 32.5607 4.93934C32.842 5.22064 33 5.60218 33 6V30C33 30.3978 32.842 30.7794 32.5607 31.0607C32.2794 31.342 31.8978 31.5 31.5 31.5H4.5C4.10218 31.5 3.72064 31.342 3.43934 31.0607C3.15804 30.7794 3 30.3978 3 30V6C3 5.60218 3.15804 5.22064 3.43934 4.93934C3.72064 4.65804 4.10218 4.5 4.5 4.5ZM24.696 23.304L30 18L24.696 12.696L22.575 14.82L25.758 18L22.575 21.1815L24.696 23.304ZM10.242 18L13.425 14.8185L11.304 12.696L6 18L11.304 23.304L13.425 21.18L10.242 18ZM16.866 25.5L22.326 10.5H19.134L13.674 25.5H16.866Z" fill="#494949"/>
</svg>
