<svg width="82" height="65" viewBox="0 0 82 65" fill="none" xmlns="http://www.w3.org/2000/svg">
<path d="M58.3015 62.8676L58.9046 63.2133L59.4388 62.7684C65.5414 57.6852 70.6694 50.979 74.8362 42.6785L74.838 42.6751C78.9277 34.4491 81 26.6337 81 19.2414L81 2.00001L81 1.00001L80 1.00001L53.3238 1.00001L52.3238 1.00001L52.3238 2.00001L52.3238 21.1845C52.0933 31.6982 48.707 42.0927 42.1142 52.38L41.5472 53.2646L42.4589 53.7871L58.3015 62.8676ZM18.3454 62.8676L18.9485 63.2133L19.4827 62.7684C25.5853 57.6852 30.7133 50.979 34.8801 42.6785L34.8818 42.6751C38.9715 34.4491 41.0439 26.6337 41.0439 19.2414L41.0439 2L41.0439 1L40.0439 1L13.3676 1L12.3676 1L12.3676 2L12.3676 21.1845C12.1371 31.6982 8.75084 42.0927 2.15805 52.38L1.5911 53.2646L2.50272 53.7871L18.3454 62.8676Z" stroke="black" stroke-width="2"/>
</svg>
