<svg width="254" height="52" viewBox="0 0 254 52" fill="none" xmlns="http://www.w3.org/2000/svg">
<rect x="130.772" y="9" width="5.27214" height="5.27214" transform="rotate(45 130.772 9)" fill="white"/>
<path d="M93.4782 36.2101C91.6786 37.186 90.05 37.6739 88.5926 37.6739C87.1351 37.6739 85.8868 37.5408 84.8476 37.2747C83.8084 36.9959 82.9276 36.5903 82.2052 36.058C80.7351 34.9808 80 33.422 80 31.3815C80 29.5566 80.8998 28.0358 82.6994 26.8191C84.6511 25.5011 87.2999 24.8421 90.6457 24.8421L91.4061 24.8611C91.5582 24.8737 91.7292 24.8864 91.9194 24.8991C92.1095 24.8991 92.2805 24.9118 92.4326 24.9371C92.3312 22.9094 91.4568 21.7244 89.8092 21.3822C89.2643 21.2682 88.6813 21.2111 88.0603 21.2111C87.452 21.2111 86.85 21.2682 86.2543 21.3822C85.6714 21.4836 85.1011 21.623 84.5434 21.8004C83.3141 22.1933 82.4333 22.6432 81.901 23.1502L81.844 23.1121L81.2737 18.9109C83.5169 17.7323 85.9692 17.143 88.6306 17.143C92.7621 17.143 95.4045 18.6321 96.5578 21.6103C96.9254 22.5609 97.1091 23.6318 97.1091 24.8231V31.7047C97.1091 33.1748 97.6287 34.176 98.6679 34.7083L95.2271 37.864C94.5047 37.4838 93.9218 36.9325 93.4782 36.2101ZM92.4516 28.3589C92.1095 28.2956 91.7546 28.2639 91.3871 28.2639H90.6267C87.8258 28.2639 86.0452 28.8849 85.2848 30.1269C85.0567 30.4944 84.9426 30.881 84.9426 31.2865C84.9426 31.692 85.0123 32.0532 85.1517 32.3701C85.3038 32.6742 85.551 32.9277 85.8931 33.1305C86.5522 33.5107 87.528 33.7008 88.8207 33.7008C90.1261 33.7008 91.3427 33.3903 92.4706 32.7693C92.458 32.6299 92.4516 32.4841 92.4516 32.3321V28.3589Z" fill="white"/>
<path d="M101.234 44.0043L102.489 42.9967C104.377 41.4633 105.942 39.201 107.184 36.2101L108.059 34.1L100.778 17.5232H106.101L110.663 29.0053L114.903 17.5232H120.378C119.718 18.4357 118.914 20.1339 117.963 22.6179L115.112 29.6706C111.297 38.6434 108.306 43.9916 106.139 45.7152L101.234 44.0043Z" fill="white"/>
<path d="M134.464 35.6588C132.842 37.0022 131.074 37.6739 129.16 37.6739C127.107 37.6739 125.498 36.9832 124.332 35.6018C123.216 34.2584 122.659 32.4144 122.659 30.0699V22.5228C122.659 19.9881 122.602 18.537 122.488 18.1695C122.386 17.7893 122.31 17.5485 122.26 17.4471C122.842 17.4978 123.451 17.5232 124.084 17.5232H125.662C126.081 17.5232 126.632 17.5042 127.316 17.4661V28.473C127.316 31.0837 128.026 32.5982 129.445 33.0164C129.876 33.1432 130.345 33.2065 130.852 33.2065C132.348 33.2065 133.552 32.6616 134.464 31.5717V17.5232H139.179V34.9555C139.179 36.0707 139.229 36.8818 139.331 37.3888H134.464V35.6588Z" fill="white"/>
<path d="M158.892 36.3242C157.283 37.224 155.673 37.6739 154.063 37.6739C152.454 37.6739 151.047 37.4204 149.843 36.9135C148.639 36.4066 147.613 35.7095 146.764 34.8224C145.015 32.9974 144.14 30.6275 144.14 27.7126C144.14 24.6963 145.154 22.187 147.182 20.1846C149.222 18.1568 151.833 17.143 155.014 17.143C155.99 17.143 156.947 17.2697 157.884 17.5232V9.06366H162.542V29.3855C162.542 31.0711 162.618 32.1736 162.77 32.6932C162.935 33.2129 163.112 33.5931 163.302 33.8339C163.505 34.0747 163.759 34.3028 164.063 34.5182L160.489 37.6739C159.83 37.319 159.298 36.8691 158.892 36.3242ZM154.957 33.3016C156.022 33.3016 156.997 33.0988 157.884 32.6932V22.1616C156.997 21.7941 156.034 21.6103 154.995 21.6103C153.956 21.6103 153.062 21.7498 152.315 22.0286C151.579 22.3074 150.946 22.6939 150.414 23.1882C149.298 24.2274 148.741 25.5771 148.741 27.2373C148.741 29.0496 149.248 30.4944 150.261 31.5717C151.351 32.7249 152.917 33.3016 154.957 33.3016Z" fill="white"/>
<path d="M172.427 35.2596C172.427 36.3495 172.453 37.0592 172.503 37.3888H167.675V17.5232H172.427V35.2596Z" fill="white"/>
<path d="M183.035 32.1039C182.566 32.7249 182.332 33.2192 182.332 33.5867C182.332 33.9416 182.389 34.2204 182.503 34.4232C182.617 34.6133 182.864 34.797 183.244 34.9745C184.08 35.3673 185.456 35.7159 187.369 36.02C189.283 36.3115 190.778 36.679 191.856 37.1226C192.946 37.5662 193.826 38.1111 194.498 38.7575C195.753 39.9868 196.38 41.7294 196.38 43.9853C196.38 46.2411 195.588 47.9711 194.004 49.175C192.42 50.3917 190.069 51 186.951 51C183.808 51 181.273 50.3156 179.347 48.9469C177.421 47.5782 176.432 45.7595 176.381 43.491C176.305 40.8549 177.338 38.9476 179.48 37.769C178.897 37.2874 178.504 36.7234 178.301 36.0771C178.111 35.418 178.016 34.6703 178.016 33.8339C178.016 32.4271 178.631 31.2358 179.86 30.26C178.428 28.9039 177.712 27.2183 177.712 25.2033C177.712 22.9474 178.523 21.0591 180.145 19.5382C181.856 17.9414 184.074 17.143 186.799 17.143C188.231 17.143 189.574 17.4091 190.829 17.9414C192.477 17.2444 193.687 16.636 194.46 16.1164C195.233 15.5841 195.727 15.1976 195.943 14.9568L196.057 14.9758C196.171 15.28 196.304 15.7109 196.456 16.2685L196.798 17.6372C197.102 18.7652 197.286 19.5382 197.35 19.9565C196.792 20.5648 195.81 20.9957 194.403 21.2492C194.948 22.301 195.22 23.4163 195.22 24.5949C195.22 25.7736 195.018 26.8445 194.612 27.8076C194.207 28.7582 193.63 29.5946 192.882 30.317C191.222 31.8758 189.105 32.6552 186.533 32.6552C185.278 32.6552 184.112 32.4715 183.035 32.1039ZM182.541 23.5494C182.363 24.0056 182.274 24.4682 182.274 24.9371C182.274 25.406 182.37 25.8559 182.56 26.2868C182.762 26.7177 183.054 27.1043 183.434 27.4465C184.283 28.2069 185.392 28.5871 186.761 28.5871C187.8 28.5871 188.7 28.2385 189.46 27.5415C190.259 26.7811 190.658 25.8686 190.658 24.804C190.658 23.7268 190.297 22.8587 189.574 22.1997C188.852 21.5406 187.857 21.2111 186.59 21.2111C184.499 21.2111 183.149 21.9905 182.541 23.5494ZM187.198 46.9699C190.316 46.9699 191.875 45.8799 191.875 43.7001C191.875 42.6609 191.368 41.8244 190.354 41.1908C189.213 40.4684 187.255 39.9044 184.48 39.4989L183.491 39.3278C182.655 39.7714 182.04 40.3417 181.647 41.0387C181.254 41.7357 181.058 42.3948 181.058 43.0158C181.071 43.6494 181.223 44.1944 181.514 44.6506C181.806 45.1069 182.211 45.5061 182.731 45.8483C183.884 46.596 185.373 46.9699 187.198 46.9699Z" fill="white"/>
<path d="M204.897 35.2596C204.897 36.3495 204.922 37.0592 204.973 37.3888H200.144V17.5232H204.897V35.2596Z" fill="white"/>
<path d="M219.097 33.2065C220.732 33.2065 221.854 32.782 222.462 31.9328H222.614L222.671 36.3432C222.05 36.9642 220.897 37.3761 219.211 37.5789C218.755 37.6422 218.185 37.6739 217.5 37.6739C216.829 37.6739 216.094 37.5472 215.295 37.2937C214.509 37.0402 213.838 36.6283 213.28 36.058C212.127 34.8794 211.55 33.0354 211.55 30.5261V21.8955H208.68C208.667 21.528 208.661 21.1541 208.661 20.7739V17.8463C208.661 17.6309 208.667 17.5232 208.68 17.5232H211.55V9.06366H216.208V17.5232H221.435V21.8955H216.208V29.6516C216.208 31.6414 216.759 32.7756 217.861 33.0544C218.216 33.1558 218.628 33.2065 219.097 33.2065Z" fill="white"/>
<path d="M239.666 36.2101C237.866 37.186 236.238 37.6739 234.78 37.6739C233.323 37.6739 232.075 37.5408 231.035 37.2747C229.996 36.9959 229.115 36.5903 228.393 36.058C226.923 34.9808 226.188 33.422 226.188 31.3815C226.188 29.5566 227.088 28.0358 228.887 26.8191C230.839 25.5011 233.488 24.8421 236.834 24.8421L237.594 24.8611C237.746 24.8737 237.917 24.8864 238.107 24.8991C238.297 24.8991 238.468 24.9118 238.621 24.9371C238.519 22.9094 237.645 21.7244 235.997 21.3822C235.452 21.2682 234.869 21.2111 234.248 21.2111C233.64 21.2111 233.038 21.2682 232.442 21.3822C231.859 21.4836 231.289 21.623 230.731 21.8004C229.502 22.1933 228.621 22.6432 228.089 23.1502L228.032 23.1121L227.462 18.9109C229.705 17.7323 232.157 17.143 234.818 17.143C238.95 17.143 241.592 18.6321 242.746 21.6103C243.113 22.5609 243.297 23.6318 243.297 24.8231V31.7047C243.297 33.1748 243.817 34.176 244.856 34.7083L241.415 37.864C240.693 37.4838 240.11 36.9325 239.666 36.2101ZM238.64 28.3589C238.297 28.2956 237.942 28.2639 237.575 28.2639H236.815C234.014 28.2639 232.233 28.8849 231.473 30.1269C231.245 30.4944 231.131 30.881 231.131 31.2865C231.131 31.692 231.2 32.0532 231.34 32.3701C231.492 32.6742 231.739 32.9277 232.081 33.1305C232.74 33.5107 233.716 33.7008 235.009 33.7008C236.314 33.7008 237.531 33.3903 238.659 32.7693C238.646 32.6299 238.64 32.4841 238.64 32.3321V28.3589Z" fill="white"/>
<path d="M253.658 35.2596C253.658 36.3495 253.683 37.0592 253.734 37.3888H248.905V9.06366H253.658V35.2596Z" fill="white"/>
<rect width="52" height="52" rx="10" fill="white"/>
<path fill-rule="evenodd" clip-rule="evenodd" d="M28.4315 14.6484L25.9963 12.2513L11 27.0123L12.7047 28.6903L12.7047 28.6903L14.1658 30.1285L29.1621 15.3675L28.4315 14.6484Z" fill="black"/>
<path fill-rule="evenodd" clip-rule="evenodd" d="M24.5426 13.6882L22.838 15.3662L37.8342 30.1272L40.2695 27.7301L40.2695 27.7301L41 27.011L26.0038 12.25L24.5426 13.6882Z" fill="black"/>
<path fill-rule="evenodd" clip-rule="evenodd" d="M26.0147 37.75C29.2589 37.75 31.8889 35.1613 31.8889 31.968C31.8889 28.7747 29.2589 26.1861 26.0147 26.1861C22.7706 26.1861 20.1406 28.7747 20.1406 31.968C20.1406 35.1613 22.7706 37.75 26.0147 37.75ZM26 34C27.1046 34 28 33.1046 28 32C28 30.8954 27.1046 30 26 30C24.8954 30 24 30.8954 24 32C24 33.1046 24.8954 34 26 34Z" fill="black"/>
</svg>