<svg width="36" height="36" viewBox="0 0 36 36" fill="none" xmlns="http://www.w3.org/2000/svg">
<path d="M7.39337 32.2275L16.1624 23.4585C16.8003 23.6295 17.4768 23.5852 18.087 23.3325C18.6971 23.0798 19.2069 22.6328 19.5371 22.0609C19.8673 21.489 19.9996 20.8241 19.9134 20.1693C19.8272 19.5145 19.5274 18.9065 19.0604 18.4395C18.5934 17.9725 17.9854 17.6726 17.3306 17.5865C16.6758 17.5003 16.0109 17.6326 15.439 17.9628C14.867 18.293 14.4201 18.8028 14.1674 19.4129C13.9147 20.0231 13.8704 20.6996 14.0414 21.3375L5.27237 30.1065L3.68237 28.5165C7.92287 23.5665 9.51437 18.0855 11.6354 8.89351L21.1814 7.83301L29.6669 16.3185L28.6064 25.8645C19.4144 27.9855 13.9334 29.577 8.98487 33.819L7.39337 32.229V32.2275ZM24.8939 3.06001L34.4144 12.579C34.5125 12.677 34.5815 12.8002 34.6138 12.935C34.6461 13.0698 34.6405 13.2109 34.5974 13.3427C34.5544 13.4744 34.4757 13.5917 34.37 13.6814C34.2643 13.7712 34.1359 13.8299 33.9989 13.851L31.7879 14.196L23.3039 5.71201L23.6219 3.48451C23.6416 3.34677 23.6993 3.21724 23.7885 3.11042C23.8777 3.00359 23.9948 2.92369 24.1268 2.87964C24.2588 2.83558 24.4005 2.82913 24.536 2.86098C24.6714 2.89284 24.7953 2.96175 24.8939 3.06001Z" fill="#494949"/>
</svg>
